<!-- Generated by IcoMoon.io -->
<svg version="1.1" xmlns="http://www.w3.org/2000/svg" width="23" height="23" viewBox="0 0 23 23">
<title>codepen</title>
<path d="M21.242 8.267l-10.063-6.708c-0.241-0.161-0.556-0.161-0.797 0l-10.063 6.708c-0.2 0.133-0.32 0.358-0.32 0.598v6.708c0 0.24 0.12 0.465 0.32 0.598l10.063 6.708c0.121 0.081 0.26 0.121 0.399 0.121s0.278-0.040 0.399-0.121l10.063-6.708c0.2-0.133 0.32-0.358 0.32-0.598v-6.708c0-0.24-0.12-0.465-0.32-0.598zM10.781 14.709l-3.736-2.49 3.736-2.49 3.736 2.49-3.736 2.49zM11.5 8.48v-4.981l8.048 5.365-3.735 2.49-4.313-2.875zM10.063 8.48l-4.313 2.875-3.736-2.49 8.048-5.365v4.981zM4.454 12.219l-3.017 2.011v-4.022l3.017 2.011zM5.75 13.083l4.313 2.875v4.981l-8.048-5.365 3.736-2.49zM11.5 15.958l4.313-2.875 3.736 2.49-8.048 5.365v-4.981zM17.108 12.219l3.017-2.011v4.022l-3.017-2.011z"></path>
</svg>
