<!-- Generated by IcoMoon.io -->
<svg version="1.1" xmlns="http://www.w3.org/2000/svg" width="23" height="23" viewBox="0 0 23 23">
<title>github</title>
<path d="M11.5 0.284c-6.351 0-11.5 5.148-11.5 11.5 0 5.081 3.295 9.392 7.864 10.912 0.575 0.106 0.786-0.25 0.786-0.553 0-0.274-0.011-1.18-0.016-2.141-3.2 0.696-3.875-1.357-3.875-1.357-0.523-1.329-1.277-1.683-1.277-1.683-1.043-0.714 0.079-0.699 0.079-0.699 1.154 0.081 1.763 1.185 1.763 1.185 1.026 1.758 2.69 1.25 3.347 0.956 0.103-0.743 0.401-1.251 0.73-1.538-2.554-0.291-5.24-1.277-5.24-5.683 0-1.256 0.449-2.281 1.185-3.087-0.119-0.29-0.513-1.459 0.111-3.043 0 0 0.966-0.309 3.163 1.179 0.917-0.255 1.901-0.383 2.878-0.387 0.977 0.004 1.962 0.132 2.881 0.387 2.195-1.488 3.159-1.179 3.159-1.179 0.626 1.584 0.232 2.754 0.113 3.043 0.737 0.805 1.184 1.831 1.184 3.087 0 4.417-2.69 5.39-5.251 5.674 0.412 0.357 0.78 1.057 0.78 2.13 0 1.539-0.013 2.777-0.013 3.156 0 0.306 0.207 0.665 0.79 0.552 4.567-1.522 7.858-5.831 7.858-10.911 0-6.352-5.149-11.5-11.5-11.5z"></path>
</svg>
